<?xml version="1.0" encoding="utf-8"?>
<!-- Generator: Adobe Illustrator 18.0.0, SVG Export Plug-In . SVG Version: 6.00 Build 0)  -->
<!DOCTYPE svg PUBLIC "-//W3C//DTD SVG 1.1//EN" "http://www.w3.org/Graphics/SVG/1.1/DTD/svg11.dtd">
<svg version="1.1" id="Layer_1" xmlns="http://www.w3.org/2000/svg" xmlns:xlink="http://www.w3.org/1999/xlink" x="0px" y="0px"
	 viewBox="-483.6577 -571.6892 1630.6577 1623.4503" enable-background="new -483.6577 -571.6892 1630.6577 1623.4503"
	 xml:space="preserve">
<g>
	<title>Layer 1</title>
	<g id="layer1">
		<g id="g6100">
			<path id="path5097" fill="#FF0000" d="M-3.0738-14.9118c-28.3241,27.0191-79.9851,79.8061-148.9479,75.5112
				c-15.6103-0.972-23.3898-11.4369-27.0513-23.1323c-1.7595,8.2055-11.7911,24.2677-26.4684,20.7012
				c-27.3173-6.6379-55.9101-22.5523-86.2981-47.1886c46.9132,124.0576,130.9816,156.4645,237.2284,134.1638
				c-46.7786-10.5786-89.1164-25.8813-121.8186-51.4344C-88.4612,97.0975-27.8328,33.397-3.0738-14.9118z"/>
			<path id="path5099" fill="#FF0000" d="M8.2583,106.481c-40.9719,64.8131-131.9336,114.7028-211.7743,80.986
				c51.8886,88.9405,150.3684,98.9469,191.299,35.3637c-30.6035,22.9679-69.0578,15.8419-85.9615-1.1154
				C-29.1866,194.5246-9.6831,150.7643,8.2583,106.481z"/>
			<path id="path5101" fill="#FF0000" d="M37.1319,217.6554C19.1078,272.6282-72.966,344.8964-144.0604,349.199
				c88.1255,57.0244,137.1849,26.9249,175.0661-28.1045c-22.1711,9.0696-36.3576,13.5281-50.7505-1.2191
				C20.019,292.0714,36.3928,249.7992,37.1319,217.6554z"/>
			<path id="path5103" fill="#FF0000" d="M67.4355,328.5861c-24.0791,52.4478-73.176,103.6913-129.186,106.962
				c53.956,26.4323,112.3154,23.4482,151.2003-15.7058c-26.0562,7.3323-45.6259,14.8846-62.4367,6.0176
				C57.2547,407.85,72.2176,356.8303,67.4355,328.5861z"/>
			<path id="path5109" fill="#FF0000" d="M324.9127,1035.6973c-117.4926-222.6589-71.5068-444.9769-27.8305-670.316
				c-38.3604-87.3668-78.5-173.1145-138.1962-241.0643c-10.643,80.0882,24.3378,178.3235,85.6071,277.168
				c-42.2856,99.0272-90.1642,191.6646-118.2504,290.0911c-11.0847,38.8461,9.475,27.3072,32.8164,7.7894
				c-13.5642,38.3817-30.5216,71.9991-69.4417,74.7819c-18.6142-43.2183,18.3401-112.1857,43.744-165.5505
				c28.3885-72.8484,64.9246-139.7546,98.7587-208.6314c-86.8873-112.489-128.6393-224.9179-125.324-337.2867L66.635,30.905
				c8.9104,106.6039,25.8927,214.2136,110.5799,330.259c-24.5736,75.8994-73.5439,131.5606-137.0468,150.7967
				c46.2581-39.0853,87.0154-86.4021,105.6812-140.1422C51.2705,244.0883,38.9909,117.0026,25.7487-10.0909
				c-59.2451-72.9584-192.8982-103.9605-273.9565-89.887c42.0161,47.1506,104.584,81.2502,189.1181,93.8312
				C-206.8923-9.5945-344.3788-31.3789-419.2346-164.491c59.852,10.9204,128.9048,29.2332,189.1049,17.9628
				c105.8234,9.9904,209.3009,44.5793,250.834,82.7957C43.9886-42.3076,96.9237,0.512,123.6552,5.4056
				c4.4846-14.3886-15.5-47.4016-22.2429-55.7035C32.7267-134.8673-39.6745-181.876-130.6968-243.4062
				c-50.2606-37.3764-165.2029-18.901-218.7062-11.726c-8.0803,1.0835-18.4768,2.5581-26.518,4.5993
				c6.5392,7.3078,16.0059,13.1915,27.2252,18.2697c13.5497,6.1331,38.734,15.542,38.734,15.542
				c5.1326-6.2817,8.4261-8.8857,19.1639-8.0879c9.0197,0.67,13.3527,8.135,17.6821,16.6213
				c60.6542,22.6407,117.1953,36.2032,185.0916,49.3028c-89.9317-1.5966-242.6235-9.9462-328.535-75.6819
				c-43.8235-33.5317-44.6787-88.7834-54.7777-134.3307c30.1336,51.7762,73.6282,78.4682,141.1761,66.9484
				c33.434-5.7019,70.9157-3.0713,107.1189,3.9547c-57.4618-53.5784-73.8492-104.1211-83.3059-159.2043
				c32.4544,57.6774,39.7394,115.1553,150.6424,159.5397c69.9095,27.9786,130.3828,75.0766,190.6639,119.3473
				c14.0784-8.4803,26.4519-31.8892,16.9068-54.892C14.0694-282.3752-26.9188-331.9331-77.141-371.9967
				c-23.8126-4.858-47.6277-7.8624-71.4275-22.2887c11.0392,56.6631,71.925,97.0273,117.1007,142.5282
				C-193.587-342.7214-231.7312-448.7887-227.6477-560c32.4167,75.4285,57.7314,152.2545,167.4189,165.2604
				C26.983-342.0196,73.4618-243.7655,146.578-174.063c-25.1615-0.1181-76.5774,6.6734-46.1645,44.5679
				c84.8779,105.7587,144.295,204.3381,171.8421,304.1532c-28.0449-42.6464-54.2506-76.9021-92.4457-99.71
				c44.8854,70.7034,121.1342,167.776,157.6833,248.6705l2.1859,87.9253c-21.2922,143.4783-70.2273,280.0761-7.3714,460.2485
				L324.9127,1035.6973z"/>
			<path id="path5111" fill="#FF0000" d="M247.749,486.3704c-16.8237,90.6719-58.6187,168.0773-80.0699,256.1638
				c-14.6194,60.0331-17.8065,164.6084,3.4382,167.7304c31.8167,4.6931,39.4544-94.8406,52.571-151.5422
				c-9.2916,21.0559-19.6742,54.7096-33.3934,50.8592c-22.0782-6.1963,5.3774-115.6137,19.455-169.5466
				C220.5474,598.6693,240.9047,541.6908,247.749,486.3704z"/>
			<path id="path5113" fill="#FF0000" d="M190.9849-87.4689c27.0119-9.8951,45.0108-22.0923,42.0943-75.4575
				c-5.4128-48.8406-28.1373-137.204-90.6431-97.9099c-4.1846-15.8384,2.8604-39.4379,16.061-53.4725
				c34.9686-37.1787,79.7872-12.1526,115.3836,12.5861c28.8437-14.2585,58.2374-23.429,93.4831,21.5351
				c38.4989,70.2933,87.2279,130.3839,169.8122,156.7092c-60.5487-10.5188-125.3021-24.8135-165.8107-88.0657
				c-28.6655-44.7596-47.2063-60.9712-67.3873-61.26c4.6681,4.946,8.2298,23.6555,11.6751,38.724
				c-15.0067-9.7917-27.2391-22.1136-30.2217-38.9221c-25.7086-1.8684-42.1352-6.5849-63.3528-24.2399
				c0,0,44.5926,93.5001,32.7848,145.0518C240.1684-88.033,225.9372-87.7103,190.9849-87.4689z"/>
			<path id="path5115" fill="#FF0000" d="M334.6244-207.1246c23.4133,39.6893,62.912,77.2949,108.589,92.2215
				C389.0819-104.2577,338.267-159.1388,334.6244-207.1246z"/>
			<path id="path5117" fill="#FF0000" d="M287.7815-183.9745c42.4103,65.0202,93.9831,109.0435,165.8275,106.612
				C396.8518-4.1033,350.1437,79.7116,331.7686,193.2881C302.4737,109.1652,270.793,27.4675,222.5907-37.4357
				c45.6824-34.6229,63.604-84.3243,42.7633-155.0802c27.1662,55.2898,28.2604,109.4804,1.3307,162.4899
				c27.3892,30.8724,45.3593,71.318,55.2103,106.5978c15.5889-44.4615,45.6843-85.5126,68.9499-110.1131
				C334.4183-90.4537,297.1246-144.0538,287.7815-183.9745z"/>
			<path id="path5119" fill="#FF0000" d="M326.9545,1040c117.4946-222.6598,82.9804-449.2776,39.31-674.6157
				c38.3601-87.3672,78.4947-173.1183,138.1952-241.0648c10.6405,80.0844-24.342,178.3232-85.6059,277.1687
				c42.2851,99.0237,90.1642,191.6617,118.2466,290.0851c11.0825,38.8483-9.473,27.3105-32.8188,7.7908
				c13.5696,38.3864,30.5231,72.0035,69.444,74.7806c18.6159-43.2152-18.3389-112.1841-43.7431-165.5452
				c-28.3857-72.8478-64.9251-139.7585-98.7597-208.6351c86.8857-112.4876,128.6431-224.9158,125.3249-337.2854l40.1609-31.7738
				c-8.9122,106.6013-25.8922,214.2139-110.5811,330.2573c24.5729,75.9021,73.5471,131.5653,137.0473,150.8014
				c-46.2564-39.0856-87.0176-86.4041-105.6798-140.1477C612.0721,244.09,624.3553,117.0038,637.595-10.091
				c59.2454-72.958,192.8953-103.9607,273.9561-89.8872C869.5364-52.8273,806.9663-18.7275,722.4357-6.1468
				c147.8-3.4475,285.2892-25.2319,360.1424-158.3442c-59.8522,10.9202-128.9069,29.2335-189.1022,17.9629
				c-105.8248,9.9901-209.3013,44.5794-250.8345,82.7957C619.355-42.3075,566.4227,0.5119,539.6862,5.4054
				c-4.4858-14.3881,15.5023-47.4015,22.2442-55.7035c68.6853-84.5689,141.0845-131.5779,232.113-193.1077
				c50.2606-37.3765,165.2021-18.901,218.7017-11.7264c8.0811,1.0838,18.4775,2.5582,26.519,4.5992
				c-6.5374,7.3079-16.0038,13.1915-27.2248,18.2697c-13.5497,6.133-38.7361,15.5419-38.7361,15.5419
				c-5.1323-6.2814-8.424-8.8858-19.1635-8.0876c-9.0178,0.6702-13.3518,8.1351-17.6792,16.6211
				c-60.6571,22.6407-117.1978,36.2029-185.0914,49.3027c89.9333-1.5964,242.6215-9.9459,328.5309-75.6818
				c43.8287-33.5319,44.6797-88.7836,54.7793-134.3308c-30.1339,51.7765-73.6262,78.4683-141.1769,66.9484
				c-33.4323-5.7016-70.915-3.0714-107.1178,3.9547c57.4642-53.5781,73.8505-104.121,83.3036-159.2044
				c-32.4494,57.6773-39.7388,115.1554-150.6366,159.5396c-69.9123,27.9788-130.3846,75.0769-190.6656,119.3476
				c-14.0775-8.4801-26.4529-31.8893-16.9075-54.8921c37.7927-49.1715,78.7849-98.7288,129.0059-138.7928
				c23.8142-4.8578,47.6285-7.862,71.4295-22.2884c-11.0429,56.6627-71.9243,97.0268-117.1053,142.5279
				C856.9301-342.7211,895.0724-448.7888,890.989-560c-32.4164,75.4285-57.728,152.2548-167.4187,165.2603
				c-87.2089,52.7198-133.6896,150.9743-206.8079,220.6768c25.1666-0.1181,76.5817,6.6733,46.1707,44.5676
				C478.0528-23.7364,418.636,74.8427,391.088,174.6593c28.0427-42.6479,54.2516-76.9035,92.4467-99.711
				c-44.8841,70.7052-116.7491,165.8896-153.295,246.7854l9.2024,86.9384c21.2943,143.4792,47.8132,282.4988-15.0406,462.669
				L326.9545,1040L326.9545,1040z"/>
			<path id="path5121" fill="#FF0000" d="M668.8495-11.7421c28.3243,27.0191,79.9851,79.8061,148.9479,75.5114
				c15.6104-0.9724,23.3897-11.4372,27.0514-23.1325c1.7595,8.2053,11.7911,24.2677,26.4684,20.7014
				c27.3171-6.638,55.91-22.5525,86.2981-47.189c-46.9132,124.0577-130.9816,156.4645-237.2285,134.1638
				c46.7786-10.5785,89.1164-25.8811,121.8186-51.4343C754.2371,100.2673,693.6087,36.5666,668.8495-11.7421z"/>
			<path id="path5123" fill="#FF0000" d="M657.5176,109.6508c40.9719,64.813,131.9335,114.7027,211.7742,80.9859
				c-51.8885,88.9404-150.3683,98.9469-191.299,35.3637c30.6036,22.968,69.0579,15.8418,85.9615-1.1154
				C694.9625,197.6944,675.4589,153.934,657.5176,109.6508z"/>
			<path id="path5125" fill="#FF0000" d="M628.6439,220.8251c18.024,54.9728,110.098,127.2409,181.1925,131.5435
				c-88.1257,57.0243-137.1851,26.9248-175.0662-28.1045c22.171,9.0695,36.3576,13.528,50.7504-1.2193
				C645.7567,295.2411,629.3831,252.9688,628.6439,220.8251z"/>
			<path id="path5127" fill="#FF0000" d="M598.3405,331.7557c24.0789,52.4478,73.1758,103.6914,129.1857,106.9621
				c-53.9558,26.4323-112.3153,23.4481-151.2002-15.7059c26.0562,7.3324,45.6259,14.8848,62.4366,6.0177
				C608.5211,411.0197,593.5582,359.9999,598.3405,331.7557z"/>
			<path id="path5129" fill="#FF0000" d="M418.0269,489.5401c16.8237,90.6718,58.6187,168.0773,80.0699,256.1637
				c14.6195,60.0332,17.8066,164.6085-3.4383,167.7305c-31.8167,4.6931-39.4543-94.8408-52.5708-151.5422
				c9.2915,21.0557,19.6741,54.7096,33.3933,50.8592c22.0782-6.1964-5.3774-115.6138-19.455-169.5467
				C445.2285,601.839,424.871,544.8605,418.0269,489.5401z"/>
		</g>
	</g>
</g>
</svg>
